<svg xmlns="http://www.w3.org/2000/svg" version="1.1" xmlns:xlink="http://www.w3.org/1999/xlink" xmlns:svgjs="http://svgjs.dev/svgjs" width="1000" height="1000" viewBox="0 0 1000 1000"><rect width="1000" height="1000" fill="#ffffff"></rect><g transform="matrix(0.7,0,0,0.7,149.57576766580195,379.31054649646586)"><svg viewBox="0 0 396 137" data-background-color="#77d4fc" preserveAspectRatio="xMidYMid meet" height="345" width="1000" xmlns="http://www.w3.org/2000/svg" xmlns:xlink="http://www.w3.org/1999/xlink"><g id="tight-bounds" transform="matrix(1,0,0,1,0.23999429191775334,-0.03406858749801245)"><svg viewBox="0 0 395.52 137.06841587534822" height="137.06841587534822" width="395.52"><g><svg viewBox="0 0 705.3228921469388 244.43135999999998" height="137.06841587534822" width="395.52"><g transform="matrix(1,0,0,1,309.80289214693875,66.833911292517)"><svg viewBox="0 0 395.52 110.76353741496598" height="110.76353741496598" width="395.52"><g id="textblocktransform"><svg viewBox="0 0 395.52 110.76353741496598" height="110.76353741496598" width="395.52" id="textblock"><g><svg viewBox="0 0 395.52 110.76353741496598" height="110.76353741496598" width="395.52"><g transform="matrix(1,0,0,1,0,0)"><svg width="395.52" viewBox="3.0999999046325684 -35.95000076293945 132.2899932861328 37.04999923706055" height="110.76353741496598" data-palette-color="#000000"><path d="M15.1-17.4Q18-16.35 21.08-13.88 24.15-11.4 24.15-6.5L24.15-6.5Q24.15-3.3 21.88-1.83 19.6-0.35 17.28-0.08 14.95 0.2 12.4 0.2L12.4 0.2 7.55 0.3 4.5 0.35Q3.7 0.35 3.4-0.15 3.1-0.65 3.1-1.55L3.1-1.55 3.15-12.65 3.15-15.05Q3.15-16.95 3.3-18.5L3.3-18.5 3.45-24.6Q3.45-25.65 3.5-27.73 3.55-29.8 3.6-30.35L3.6-30.35Q3.65-30.75 3.65-31.75L3.65-31.75Q3.65-33.5 3.5-34.25L3.5-34.25Q3.45-34.35 3.45-34.5L3.45-34.5Q3.45-34.8 4-34.95L4-34.95Q4.5-35.1 6.65-35.38 8.8-35.65 10.55-35.65L10.55-35.65Q15.3-35.65 18.07-33.75 20.85-31.85 20.85-26.55L20.85-26.55Q20.85-21.75 17.95-19.05L17.95-19.05Q16.65-17.95 15.1-17.4L15.1-17.4ZM9.65-19.95Q9.65-19.45 9.6-19.07 9.55-18.7 9.55-18.5L9.55-18.5Q9.55-18.2 9.6-18.13 9.65-18.05 9.9-18.05L9.9-18.05Q10.9-18.05 13-18.6 15.1-19.15 17.05-20.95 19-22.75 19-26.15L19-26.15Q19-29.75 17.75-31.5 16.5-33.25 14.63-33.73 12.75-34.2 9.85-34.2L9.85-34.2 9.75-31Q9.65-27.4 9.65-25.65L9.65-25.65 9.65-19.95ZM11.2-0.75Q16.1-0.75 18.55-2.33 21-3.9 21-6.55L21-6.55Q21-13.25 15.25-15.65L15.25-15.65Q12.7-16.6 9.5-16.55L9.5-16.55Q9.45-16.4 9.45-16.15L9.45-16.15Q9.4-15.9 9.4-15L9.4-15 9.5-11.8 9.6-9.1Q9.6-8.4 9.55-8.1L9.55-8.1 9.5-6.8 9.6-3.85 9.7-1.55Q9.7-0.95 9.93-0.83 10.15-0.7 10.58-0.73 11-0.75 11.2-0.75L11.2-0.75ZM38.3-32.5L38.2-29.8Q38-25.7 38-23.65L38-23.65 38.1-16.1Q38.15-14.3 38.15-12.4L38.15-12.4 38.05-6.95 38-5.95 38.05-4.55 38.15-2.8 45.3-2.55 51.25-2.5 51.35-2.5Q51.65-2.5 51.7-2.4 51.75-2.3 51.72-2.13 51.7-1.95 51.7-1.85L51.7-1.85Q51.65-1.65 51.72-1.1 51.8-0.55 51.8-0.1L51.8-0.1Q51.8 0.25 51.55 0.35 51.3 0.45 50.92 0.43 50.55 0.4 50.35 0.4L50.35 0.4 47.7 0.25Q44.2-0.05 42.75-0.05L42.75-0.05Q41.15-0.05 34.65 0.25L34.65 0.25 30.1 0.4Q29 0.4 29-0.6L29-0.6 29-4.5 29.2-21.25Q29.2-23.15 28.95-28.15L28.95-28.15 28.75-34.3Q28.75-35.15 29.4-35.15L29.4-35.15Q29.65-35.15 30.25-35 30.85-34.85 31.2-34.85L31.2-34.85Q32.6-34.65 34.55-34.65L34.55-34.65Q35.9-34.65 37.1-34.8L37.1-34.8Q37.85-34.9 38.15-34.7 38.45-34.5 38.45-34.05L38.45-34.05Q38.45-33.7 38.37-33.33 38.3-32.95 38.3-32.5L38.3-32.5ZM65.45-35.7Q70.45-35.7 72.95-32.83 75.45-29.95 76.15-26.03 76.84-22.1 76.84-17.15L76.84-17.15Q76.84-13.15 75.65-8.93 74.45-4.7 71.95-1.8 69.45 1.1 65.8 1.1L65.8 1.1Q58.65 1.1 56.3-4.93 53.95-10.95 53.95-17.85L53.95-17.85Q53.95-24.5 55.77-28.5 57.59-32.5 60.22-34.1 62.84-35.7 65.45-35.7L65.45-35.7ZM65.4-11.6Q66.75-11.6 67.4-13.1 68.05-14.6 68.05-16.7L68.05-16.7Q68.05-18.7 67.42-20.2 66.8-21.7 65.75-21.7L65.75-21.7Q64.5-21.7 63.87-19.98 63.25-18.25 63.25-16.25L63.25-16.25Q63.25-14.2 63.65-12.9 64.05-11.6 65.4-11.6L65.4-11.6ZM94.54-35.95Q99.24-35.95 101.62-33.6 103.99-31.25 105.04-29.15L105.04-29.15Q105.24-28.65 105.44-28.1 105.64-27.55 105.79-27.15L105.79-27.15Q105.84-27.05 105.84-26.9L105.84-26.9Q105.84-26.75 105.72-26.65 105.59-26.55 105.39-26.48 105.19-26.4 104.94-26.25L104.94-26.25 103.79-25.65Q102.04-24.7 101.34-24.4L101.34-24.4Q100.24-23.75 99.54-23.25L99.54-23.25 98.59-22.6Q98.29-22.35 97.64-21.95L97.64-21.95Q97.44-21.8 97.24-21.8L97.24-21.8Q96.94-21.7 96.84-21.7L96.84-21.7Q96.59-21.7 96.42-22.05 96.24-22.4 96.09-22.6L96.09-22.6Q95.99-22.75 95.69-23.2 95.39-23.65 94.97-23.98 94.54-24.3 93.99-24.3L93.99-24.3Q92.49-24.3 91.64-21.98 90.79-19.65 90.79-17.1L90.79-17.1Q90.79-14.75 90.92-13.33 91.04-11.9 91.72-10.7 92.39-9.5 93.94-9.5L93.94-9.5Q95.94-9.5 96.74-12L96.74-12Q97.09-13.05 97.09-14.5L97.09-14.5 96.09-14.7Q94.89-14.9 94.34-14.95L94.34-14.95Q93.39-15.05 93.39-15.65L93.39-15.65Q93.39-16 93.79-17.6L93.79-17.6Q94.04-18.4 94.29-18.55 94.54-18.7 95.04-18.65L95.04-18.65Q95.29-18.6 96.22-18.48 97.14-18.35 99.14-18.15L99.14-18.15 101.89-17.75Q104.69-17.35 105.64-17.3L105.64-17.3Q106.49-17.25 106.79-16.4L106.79-16.4Q106.89-15.9 106.84-15.55L106.84-15.55Q106.49-9.35 104.52-5.73 102.54-2.1 99.94-0.7 97.34 0.7 94.79 0.7L94.79 0.7Q92.49 0.7 89.32-0.75 86.14-2.2 83.59-6.15 81.04-10.1 81.04-16.9L81.04-16.9Q81.04-24.8 83.44-29.03 85.84-33.25 88.84-34.6 91.84-35.95 94.54-35.95L94.54-35.95ZM121.99-35.85Q126.74-35.85 129.81-33.98 132.89-32.1 134.59-30.4L134.59-30.4Q134.79-30.2 134.79-29.95L134.79-29.95Q134.79-29.8 134.67-29.58 134.54-29.35 134.49-29.25L134.49-29.25Q134.24-28.9 133.67-28.03 133.09-27.15 132.74-26.75L132.74-26.75Q132.59-26.55 132.42-26.33 132.24-26.1 132.12-26 131.99-25.9 131.74-25.9L131.74-25.9Q131.64-25.9 131.27-26.23 130.89-26.55 130.54-26.8L130.54-26.8Q128.54-28.55 126.64-29.8 124.74-31.05 122.99-31.05L122.99-31.05Q121.59-31.05 120.69-30.43 119.79-29.8 119.79-27.6L119.79-27.6Q119.79-25.45 121.39-24.25 122.99-23.05 125.64-21.95L125.64-21.95Q125.89-21.85 128.56-20.7 131.24-19.55 133.31-16.3 135.39-13.05 135.39-8.55L135.39-8.55Q135.39-3.75 131.79-1.35 128.19 1.05 121.84 1.05L121.84 1.05Q114.64 1.05 112.69-1.73 110.74-4.5 110.64-4.6L110.64-4.6Q110.44-4.85 110.44-5.1L110.44-5.1Q110.44-5.25 110.84-5.75L110.84-5.75Q111.49-6.65 112.74-7.9L112.74-7.9Q112.94-8.1 113.14-8.1L113.14-8.1Q113.39-8.1 113.69-7.73 113.99-7.35 114.19-7.15L114.19-7.15Q117.14-4.2 120.89-4.2L120.89-4.2Q122.79-4.2 124.19-4.93 125.59-5.65 125.59-7.65L125.59-7.65Q125.59-11.1 120.14-15L120.14-15Q119.24-15.6 118.44-16L118.44-16Q116.34-17.15 114.84-18.25 113.34-19.35 112.19-21.15 111.04-22.95 111.04-25.35L111.04-25.35Q111.04-28.35 112.92-30.75 114.79-33.15 117.42-34.5 120.04-35.85 121.99-35.85L121.99-35.85Z" opacity="1" transform="matrix(1,0,0,1,0,0)" fill="#000000" class="wordmark-text-0" data-fill-palette-color="primary" id="text-0"></path></svg></g></svg></g></svg></g></svg></g><g><svg viewBox="0 0 244.43135999999998 244.43135999999998" height="244.43135999999998" width="244.43135999999998"><g><svg viewBox="0 0 244.43135999999998 244.43135999999998" height="244.43135999999998" width="244.43135999999998"><g transform="matrix(1,0,0,1,72.0283336167464,64.60265593644992)"><svg viewBox="0 0 100.3746927665072 115.22604812710014" height="115.22604812710014" width="100.3746927665072"><g><svg xmlns="http://www.w3.org/2000/svg" xmlns:xlink="http://www.w3.org/1999/xlink" version="1.1" x="0" y="0" viewBox="10.100000381469727 5.199999809265137 78.4000015258789 90" enable-background="new 0 0 100 100" xml:space="preserve" height="115.22604812710014" width="100.3746927665072" class="icon-s-0" data-fill-palette-color="accent" id="s-0"><polygon fill-rule="evenodd" clip-rule="evenodd" fill="#000000" points="88.5,28.2 68.4,59.9 68.5,22.3 " data-fill-palette-color="accent"></polygon><polygon fill-rule="evenodd" clip-rule="evenodd" fill="#000000" points="49.8,5.2 67.2,38.5 34.7,19.6 " data-fill-palette-color="accent"></polygon><polygon fill-rule="evenodd" clip-rule="evenodd" fill="#000000" points="67.8,38.3 67.8,22.3 60.8,24.5 " data-fill-palette-color="accent"></polygon><polygon fill-rule="evenodd" clip-rule="evenodd" fill="#000000" points="88.2,73.2 50.6,71.7 83.2,52.9 " data-fill-palette-color="accent"></polygon><polygon fill-rule="evenodd" clip-rule="evenodd" fill="#000000" points="69.1,60.3 82.8,52.3 77.4,47.4 " data-fill-palette-color="accent"></polygon><polygon fill-rule="evenodd" clip-rule="evenodd" fill="#000000" points="48.7,95.2 31.5,61.9 63.9,80.9 " data-fill-palette-color="accent"></polygon><polygon fill-rule="evenodd" clip-rule="evenodd" fill="#000000" points="50.5,72.2 64.2,80.2 65.8,73.1 " data-fill-palette-color="accent"></polygon><polygon fill-rule="evenodd" clip-rule="evenodd" fill="#000000" points="10.1,72 30.5,40.4 30.1,78 " data-fill-palette-color="accent"></polygon><polygon fill-rule="evenodd" clip-rule="evenodd" fill="#000000" points="30.9,62.1 30.8,78 37.8,75.8 " data-fill-palette-color="accent"></polygon><polygon fill-rule="evenodd" clip-rule="evenodd" fill="#000000" points="11,27 48.5,28.9 15.8,47.3 " data-fill-palette-color="accent"></polygon><polygon fill-rule="evenodd" clip-rule="evenodd" fill="#000000" points="30,40.1 16.1,47.9 21.5,52.9 " data-fill-palette-color="accent"></polygon><polygon fill-rule="evenodd" clip-rule="evenodd" fill="#000000" points="48.2,28.3 34.5,20.2 32.9,27.4 " data-fill-palette-color="accent"></polygon></svg></g></svg></g><g><path d="M24.848 81.993c1.155-1.399 2.724-2.708 4.706-3.926 1.978-1.227 4.327-1.357 7.048-0.392v0c1.781 0.632 2.855 1.724 3.223 3.278 0.374 1.556 0.407 3.005 0.099 4.347-0.304 1.351-0.706 2.733-1.208 4.146v0l-1.351 4.075-0.864 2.554c-0.157 0.442-0.402 0.699-0.735 0.77-0.34 0.069-0.759 0.015-1.258-0.162v0l-9.231-3.327-1.999-0.709c-1.059-0.376-2.003-0.756-2.834-1.142v0l-5.036-1.933c-0.579-0.205-1.44-0.525-2.583-0.959-1.141-0.44-1.863-0.727-2.166-0.862v0c-0.209-0.102-0.591-0.252-1.145-0.449v0c-0.972-0.345-1.68-0.55-2.126-0.617v0c-0.065 0.005-0.141-0.008-0.228-0.039v0c-0.162-0.057-0.232-0.254-0.211-0.59v0c0.016-0.303 0.159-1.08 0.427-2.331 0.275-1.249 0.584-2.359 0.928-3.33v0c0.934-2.634 2.202-4.537 3.802-5.708 1.604-1.163 3.876-1.223 6.816-0.18v0c2.665 0.945 4.464 2.488 5.395 4.626v0c0.354 0.939 0.531 1.892 0.531 2.86zM21.117 85.781c0.274 0.097 0.511 0.199 0.712 0.305 0.197 0.098 0.351 0.167 0.464 0.206v0c0.168 0.06 0.278 0.085 0.33 0.076 0.048-0.018 0.097-0.095 0.146-0.233v0c0.197-0.554 0.349-1.468 0.457-2.74 0.11-1.279-0.142-2.634-0.756-4.065-0.618-1.439-1.871-2.494-3.758-3.163v0c-1.999-0.709-3.607-0.89-4.824-0.543-1.219 0.353-2.147 1.002-2.783 1.947-0.63 0.947-1.232 2.227-1.804 3.84v0l2.632 1.028c1.988 0.761 3.467 1.314 4.439 1.659v0zM37.567 90.164c0.965-2.721 1.253-4.916 0.863-6.582-0.394-1.675-1.326-2.774-2.796-3.295v0c-3.724-1.321-6.819-0.62-9.285 2.102v0c-1.025 1.228-1.84 2.737-2.448 4.527v0c0.072 0.054 0.18 0.106 0.324 0.156v0c0.126 0.08 0.438 0.208 0.936 0.385v0l2.701 0.864 2.272 0.711c0.392 0.139 0.668 0.251 0.828 0.335v0l1.067 0.431 2.486 0.788 1.945 0.595c0.33 0.117 0.551 0.125 0.664 0.025 0.119-0.098 0.211-0.269 0.276-0.512 0.071-0.241 0.127-0.418 0.167-0.53z" fill="#000000" data-fill-palette-color="accent"></path><path d="M52.979 25.256l1.347 1.975c1.337 2.011 2.364 3.503 3.082 4.476v0l4.033 5.314c0.653 0.84 1.311 1.71 1.974 2.609v0l2.789 3.928 0.492 0.734 0.767 0.973 0.99 1.191 5.224-3.572 4.25-3.087 0.072-0.053c0.144-0.106 0.246-0.145 0.308-0.117 0.057 0.032 0.109 0.092 0.157 0.18 0.052 0.093 0.096 0.163 0.131 0.211v0c0.044 0.115 0.181 0.289 0.411 0.523 0.224 0.237 0.415 0.462 0.571 0.674v0c0.122 0.165 0.142 0.314 0.06 0.449-0.082 0.134-0.217 0.263-0.405 0.385-0.183 0.119-0.323 0.214-0.419 0.284v0l-1.964 1.278c-1.761 1.086-2.987 1.884-3.678 2.394v0c-0.755 0.557-2.623 2.043-5.605 4.457v0l-3.155 2.501c-0.521 0.385-0.958 0.338-1.312-0.141v0l-2.042-2.767-8.65-12.021c-0.663-0.898-1.928-2.49-3.795-4.775v0l-3.375-4.272c-0.298-0.404-0.293-0.72 0.015-0.948v0c0.117-0.086 0.346-0.198 0.689-0.335 0.333-0.139 0.582-0.269 0.746-0.391v0c0.735-0.395 1.565-0.934 2.491-1.616v0c0.643-0.475 1.224-0.957 1.741-1.446v0c0.316-0.307 0.58-0.465 0.795-0.475 0.21-0.016 0.394 0.083 0.551 0.295v0c0.126 0.17 0.234 0.357 0.327 0.56 0.102 0.204 0.231 0.413 0.387 0.625z" fill="#000000" data-fill-palette-color="accent"></path><path d="M118.636 0.015c2.944-0.135 5.191 0.612 6.741 2.242 1.549 1.622 2.581 3.579 3.096 5.871 0.522 2.291 0.849 4.896 0.983 7.813v0c0.108 2.35-0.135 4.785-0.728 7.307-0.592 2.521-1.586 4.666-2.979 6.436-1.394 1.777-3.167 2.715-5.319 2.813v0c-4.205 0.192-7.081-1.452-8.63-4.933-1.542-3.482-2.406-7.255-2.591-11.321v0c-0.179-3.914 0.212-7.074 1.173-9.48 0.968-2.399 2.203-4.106 3.705-5.121 1.501-1.015 3.018-1.557 4.549-1.627zM119.571 21.305c0.792-0.036 1.359-0.505 1.701-1.407 0.342-0.902 0.485-1.97 0.429-3.205v0c-0.054-1.182-0.286-2.203-0.695-3.064-0.404-0.868-0.916-1.288-1.536-1.259v0c-0.733 0.034-1.261 0.567-1.584 1.6-0.323 1.033-0.458 2.138-0.404 3.313v0c0.055 1.208 0.219 2.189 0.492 2.944 0.266 0.755 0.798 1.114 1.597 1.078z" fill="#000000" data-fill-palette-color="accent"></path><path d="M189.015 19.991c2.338 1.484 3.726 3.187 4.165 5.109 0.437 1.913 0.587 3.558 0.449 4.934v0c-0.059 0.315-0.125 0.641-0.198 0.978-0.073 0.337-0.137 0.629-0.192 0.876v0c-0.01 0.064-0.037 0.133-0.083 0.205v0c-0.046 0.073-0.116 0.114-0.209 0.126-0.093 0.011-0.202 0.005-0.328-0.02-0.125-0.025-0.272-0.04-0.441-0.045v0l-1.14-0.09c-1.168-0.084-1.975-0.162-2.423-0.234v0c-0.752-0.023-1.381-0.019-1.886 0.012v0l-1.019 0.034c-0.229 0.027-0.568 0.038-1.019 0.033v0c-0.146 0.009-0.27-0.019-0.371-0.082v0c-0.177-0.042-0.29-0.079-0.34-0.111v0c-0.123-0.078-0.174-0.232-0.154-0.461 0.024-0.235 0.03-0.423 0.018-0.564v0c-0.001-0.11-0.005-0.324-0.015-0.643-0.003-0.315-0.06-0.621-0.169-0.917-0.109-0.296-0.301-0.531-0.574-0.705v0c-0.748-0.474-1.7-0.269-2.857 0.617-1.161 0.891-2.143 1.97-2.946 3.236v0c-0.744 1.172-1.31 2.131-1.698 2.879-0.383 0.751-0.596 1.531-0.64 2.34-0.044 0.809 0.319 1.458 1.088 1.948v0c0.999 0.634 2.091 0.454 3.277-0.539v0c0.506-0.415 0.987-0.982 1.444-1.701v0l-0.65-0.624c-0.533-0.479-0.929-0.817-1.188-1.012v0c-0.442-0.351-0.568-0.677-0.377-0.979v0c0.11-0.173 0.518-0.595 1.226-1.265v0c0.374-0.318 0.646-0.475 0.814-0.469 0.178 0.003 0.381 0.097 0.609 0.28v0c0.114 0.104 0.38 0.332 0.799 0.684 0.421 0.361 1.097 0.904 2.03 1.629v0l1.859 1.602c1.267 1.086 2.131 1.791 2.591 2.114v0c0.401 0.293 0.544 0.697 0.428 1.212v0c-0.109 0.283-0.23 0.504-0.362 0.662v0c-2.137 2.972-4.268 5.047-6.393 6.226-2.129 1.184-4.062 1.714-5.799 1.59-1.733-0.13-3.233-0.596-4.5-1.4v0c-1.144-0.726-2.277-1.95-3.399-3.672-1.122-1.722-1.696-3.968-1.721-6.739-0.016-2.773 1.048-5.85 3.194-9.231v0c2.496-3.933 5.007-6.57 7.533-7.909 2.529-1.345 4.752-1.883 6.67-1.613 1.92 0.28 3.552 0.846 4.897 1.699z" fill="#000000" data-fill-palette-color="accent"></path><path d="M234.354 75.701c1.064 2.592 1.429 4.935 1.096 7.029-0.333 2.094-0.774 3.796-1.322 5.107v0c-0.067 0.149-0.168 0.251-0.303 0.306v0c-0.086 0.035-0.203 0.044-0.353 0.027-0.15-0.017-0.257-0.027-0.322-0.028v0c-0.247-0.063-0.673-0.152-1.278-0.268-0.605-0.116-1.053-0.225-1.345-0.327v0c-0.145-0.04-0.298-0.081-0.457-0.123-0.162-0.048-0.285-0.094-0.368-0.138-0.083-0.045-0.153-0.137-0.21-0.278v0c-0.02-0.049 0.016-0.214 0.107-0.494 0.094-0.274 0.169-0.537 0.223-0.788v0c0.507-1.48 0.888-2.875 1.142-4.187 0.258-1.32 0.191-2.457-0.2-3.411v0c-0.314-0.764-0.742-1.32-1.285-1.668-0.543-0.348-1.414-0.277-2.611 0.215v0c-1.168 0.479-1.9 1.287-2.198 2.423-0.295 1.143-0.449 2.559-0.463 4.251v0c0.009 0.161-0.003 1.098-0.035 2.811-0.03 1.719-0.696 3.507-1.999 5.363-1.309 1.859-3.191 3.292-5.648 4.301v0c-2.616 1.074-4.981 0.898-7.095-0.527-2.114-1.425-3.881-3.868-5.301-7.328v0c-1.611-3.924-1.877-6.73-0.797-8.415 1.073-1.683 1.626-2.564 1.658-2.642v0c0.095-0.168 0.21-0.279 0.345-0.334v0c0.079-0.033 0.302 0.005 0.667 0.111v0c0.635 0.154 1.433 0.429 2.397 0.827v0c0.149 0.067 0.246 0.156 0.291 0.266v0c0.055 0.134 0.016 0.326-0.118 0.574-0.14 0.25-0.241 0.449-0.302 0.595v0c-0.948 2.268-1.001 4.425-0.161 6.473v0c0.424 1.033 0.989 1.851 1.694 2.455 0.711 0.601 1.611 0.678 2.698 0.232v0c1.883-0.773 3.278-3.081 4.186-6.925v0c0.123-0.622 0.205-1.198 0.244-1.729v0c0.154-1.399 0.363-2.631 0.626-3.696 0.271-1.061 0.767-2.108 1.486-3.139 0.726-1.034 1.743-1.819 3.051-2.356v0c1.632-0.67 3.313-0.76 5.043-0.27 1.727 0.484 3.254 1.289 4.581 2.416 1.321 1.129 2.199 2.226 2.636 3.289z" fill="#000000" data-fill-palette-color="accent"></path><path d="M24.645 162.11c-0.015 1.814-0.409 3.819-1.179 6.013-0.763 2.199-2.505 3.78-5.227 4.746v0c-1.781 0.632-3.304 0.46-4.568-0.515-1.27-0.973-2.209-2.077-2.815-3.313-0.615-1.24-1.173-2.567-1.675-3.981v0l-1.519-4.015-0.939-2.527c-0.157-0.442-0.128-0.796 0.087-1.062 0.221-0.268 0.58-0.49 1.078-0.666v0l9.265-3.234 1.999-0.709c1.059-0.376 2.032-0.675 2.92-0.899v0l5.128-1.671c0.579-0.205 1.449-0.5 2.61-0.884 1.169-0.38 1.911-0.611 2.225-0.695v0c0.229-0.046 0.621-0.168 1.175-0.364v0c0.978-0.347 1.657-0.637 2.037-0.87v0c0.047-0.045 0.114-0.083 0.202-0.113v0c0.162-0.057 0.341 0.051 0.536 0.325v0c0.178 0.245 0.557 0.938 1.137 2.079 0.574 1.143 1.033 2.2 1.377 3.171v0c0.934 2.634 1.149 4.91 0.644 6.828-0.513 1.914-2.239 3.392-5.178 4.435v0c-2.665 0.945-5.034 0.881-7.105-0.194v0c-0.867-0.506-1.605-1.134-2.215-1.885zM25.156 156.817c-0.274 0.097-0.522 0.168-0.746 0.212-0.214 0.048-0.378 0.092-0.489 0.132v0c-0.168 0.06-0.27 0.11-0.305 0.15-0.026 0.044-0.015 0.135 0.034 0.272v0c0.197 0.554 0.654 1.36 1.372 2.416 0.72 1.063 1.771 1.959 3.152 2.689 1.385 0.722 3.021 0.748 4.908 0.079v0c1.999-0.709 3.362-1.582 4.088-2.618 0.724-1.042 1.036-2.131 0.934-3.265-0.107-1.133-0.447-2.506-1.019-4.119v0l-2.692 0.86c-2.017 0.659-3.514 1.162-4.492 1.509v0zM9.62 163.779c0.965 2.721 2.125 4.606 3.478 5.655 1.362 1.052 2.778 1.318 4.248 0.797v0c3.724-1.321 5.686-3.815 5.885-7.483v0c0.022-1.599-0.296-3.285-0.952-5.057v0c-0.09 0.004-0.206 0.031-0.35 0.082v0c-0.148 0.017-0.471 0.115-0.969 0.291v0l-2.642 1.032-2.212 0.879c-0.392 0.139-0.677 0.226-0.854 0.261v0l-1.1 0.337-2.427 0.956-1.885 0.763c-0.33 0.117-0.507 0.25-0.532 0.399-0.031 0.151 0.005 0.342 0.108 0.572 0.096 0.232 0.164 0.404 0.204 0.516z" fill="#000000" data-fill-palette-color="accent"></path><path d="M68.696 197.478l-1.484 1.862c-1.532 1.875-2.657 3.299-3.375 4.272v0l-3.889 5.42c-0.61 0.872-1.247 1.757-1.91 2.656v0l-2.933 3.823-0.555 0.686-0.704 1.02-0.846 1.297 4.952 3.939 4.204 3.151 0.071 0.053c0.144 0.106 0.211 0.193 0.203 0.26-0.014 0.064-0.056 0.131-0.126 0.203-0.073 0.077-0.128 0.14-0.163 0.188v0c-0.097 0.076-0.223 0.258-0.378 0.546-0.155 0.288-0.311 0.538-0.468 0.751v0c-0.122 0.165-0.261 0.226-0.419 0.183-0.152-0.038-0.315-0.13-0.488-0.273-0.168-0.14-0.299-0.245-0.395-0.316v0l-1.799-1.501c-1.557-1.362-2.681-2.299-3.372-2.809v0c-0.755-0.557-2.725-1.904-5.911-4.042v0l-3.321-2.278c-0.521-0.385-0.605-0.816-0.252-1.294v0l2.043-2.767 8.936-11.809c0.667-0.904 1.815-2.582 3.444-5.035v0l3.088-4.484c0.298-0.404 0.601-0.492 0.909-0.265v0c0.117 0.086 0.292 0.273 0.524 0.559 0.231 0.277 0.429 0.476 0.594 0.598v0c0.594 0.586 1.354 1.221 2.278 1.904v0c0.643 0.475 1.275 0.887 1.895 1.238v0c0.386 0.211 0.618 0.415 0.695 0.611 0.073 0.202 0.031 0.409-0.126 0.621v0c-0.126 0.17-0.272 0.329-0.439 0.478-0.165 0.157-0.326 0.342-0.483 0.554z" fill="#000000" data-fill-palette-color="accent"></path><path d="M120.105 211.912c2.944 0.135 5.113 1.084 6.507 2.848 1.395 1.757 2.247 3.8 2.558 6.13 0.304 2.329 0.389 4.952 0.255 7.87v0c-0.108 2.35-0.571 4.753-1.392 7.209-0.82 2.456-2.005 4.502-3.555 6.138-1.55 1.642-3.398 2.414-5.543 2.316v0c-4.211-0.193-6.929-2.093-8.153-5.701-1.217-3.614-1.733-7.451-1.547-11.511v0c0.179-3.914 0.857-7.025 2.034-9.333 1.183-2.301 2.569-3.888 4.157-4.761 1.588-0.873 3.147-1.275 4.679-1.205zM119.091 233.198c0.792 0.036 1.4-0.379 1.823-1.246 0.423-0.867 0.663-1.918 0.72-3.152v0c0.054-1.182-0.084-2.22-0.413-3.114-0.323-0.901-0.794-1.366-1.415-1.395v0c-0.733-0.034-1.307 0.45-1.723 1.45-0.416 0.993-0.651 2.08-0.705 3.261v0c-0.055 1.208 0.018 2.2 0.221 2.977 0.196 0.776 0.693 1.183 1.492 1.219z" fill="#000000" data-fill-palette-color="accent"></path><path d="M171.56 196.539c2.338-1.484 4.47-2.015 6.395-1.594 1.917 0.419 3.469 0.983 4.656 1.693v0c0.26 0.187 0.527 0.386 0.801 0.596 0.274 0.21 0.511 0.392 0.711 0.547v0c0.054 0.036 0.104 0.09 0.15 0.162v0c0.046 0.073 0.054 0.153 0.025 0.243-0.029 0.089-0.082 0.185-0.158 0.288-0.07 0.099-0.146 0.226-0.229 0.38v0l-0.566 0.993c-0.573 1.021-0.987 1.718-1.243 2.092v0c-0.341 0.671-0.605 1.241-0.792 1.712v0l-0.403 0.937c-0.073 0.218-0.207 0.531-0.404 0.937v0c-0.054 0.136-0.129 0.234-0.224 0.295v0c-0.119 0.146-0.203 0.235-0.253 0.266v0c-0.123 0.078-0.284 0.059-0.483-0.057-0.203-0.122-0.37-0.207-0.503-0.256v0c-0.1-0.046-0.296-0.133-0.588-0.261-0.287-0.131-0.587-0.21-0.902-0.238-0.315-0.027-0.609 0.046-0.882 0.22v0c-0.748 0.474-0.967 1.424-0.658 2.847 0.313 1.43 0.871 2.777 1.675 4.044v0c0.744 1.172 1.371 2.092 1.882 2.762 0.517 0.666 1.132 1.191 1.845 1.576 0.714 0.384 1.455 0.332 2.225-0.156v0c0.999-0.634 1.301-1.698 0.908-3.194v0c-0.16-0.634-0.468-1.311-0.925-2.031v0l-0.84 0.322c-0.661 0.278-1.135 0.493-1.423 0.644v0c-0.506 0.251-0.855 0.226-1.046-0.075v0c-0.11-0.173-0.317-0.722-0.623-1.648v0c-0.129-0.474-0.155-0.786-0.077-0.936 0.079-0.16 0.25-0.303 0.512-0.432v0c0.142-0.059 0.462-0.203 0.959-0.432 0.506-0.227 1.285-0.608 2.338-1.143v0l2.241-1c1.522-0.684 2.527-1.166 3.016-1.445v0c0.436-0.238 0.862-0.195 1.279 0.128v0c0.21 0.219 0.358 0.422 0.445 0.609v0c1.78 3.198 2.75 6.01 2.912 8.436 0.165 2.431-0.178 4.406-1.029 5.924-0.855 1.513-1.916 2.672-3.182 3.476v0c-1.144 0.726-2.733 1.23-4.769 1.512-2.036 0.282-4.313-0.155-6.831-1.311-2.516-1.166-4.847-3.439-6.994-6.819v0c-2.496-3.933-3.813-7.327-3.951-10.183-0.141-2.861 0.319-5.102 1.38-6.723 1.07-1.618 2.278-2.854 3.623-3.707z" fill="#000000" data-fill-palette-color="accent"></path><path d="M204.386 156.028c1.064-2.592 2.45-4.516 4.158-5.771 1.708-1.256 3.218-2.158 4.529-2.706v0c0.155-0.065 0.3-0.07 0.434-0.014v0c0.079 0.033 0.168 0.112 0.267 0.238 0.095 0.117 0.164 0.2 0.209 0.247v0c0.132 0.218 0.372 0.581 0.721 1.088 0.349 0.507 0.591 0.9 0.728 1.178v0c0.075 0.131 0.155 0.267 0.239 0.409 0.082 0.148 0.137 0.267 0.164 0.356 0.027 0.09 0.014 0.202-0.041 0.337v0c-0.023 0.055-0.165 0.15-0.428 0.285-0.26 0.129-0.498 0.264-0.712 0.404v0c-1.4 0.697-2.655 1.421-3.764 2.173-1.105 0.761-1.853 1.618-2.245 2.571v0c-0.314 0.764-0.4 1.461-0.258 2.091 0.135 0.627 0.805 1.188 2.01 1.682v0c1.168 0.479 2.257 0.419 3.267-0.181 1.013-0.606 2.119-1.509 3.319-2.709v0c0.104-0.114 0.77-0.77 1.996-1.966 1.229-1.202 2.959-2.007 5.19-2.412 2.237-0.403 4.584-0.1 7.042 0.908v0c2.616 1.074 4.176 2.861 4.678 5.36 0.503 2.499 0.044 5.479-1.376 8.939v0c-1.611 3.924-3.393 6.107-5.345 6.548-1.946 0.444-2.959 0.682-3.036 0.715v0c-0.186 0.052-0.346 0.051-0.481-0.005v0c-0.079-0.033-0.212-0.215-0.396-0.548v0c-0.343-0.555-0.718-1.313-1.125-2.272v0c-0.059-0.153-0.066-0.284-0.02-0.394v0c0.055-0.134 0.218-0.243 0.487-0.326 0.276-0.08 0.487-0.15 0.633-0.211v0c2.268-0.948 3.822-2.445 4.663-4.493v0c0.424-1.033 0.597-2.012 0.519-2.937-0.084-0.927-0.67-1.614-1.757-2.061v0c-1.883-0.773-4.497-0.11-7.844 1.987v0c-0.525 0.356-0.987 0.709-1.389 1.059v0c-1.093 0.887-2.11 1.616-3.051 2.187-0.933 0.567-2.017 0.965-3.254 1.193-1.243 0.226-2.518 0.07-3.826-0.467v0c-1.632-0.67-2.891-1.787-3.778-3.351-0.889-1.558-1.41-3.204-1.562-4.938-0.146-1.732-0.001-3.129 0.435-4.193z" fill="#000000" data-fill-palette-color="accent"></path><path d="M4.822 122.015c0-6.704 5.435-12.139 12.139-12.138 6.704 0 12.139 5.435 12.138 12.138 0 6.704-5.435 12.139-12.138 12.139-6.704 0-12.139-5.435-12.139-12.139z" fill="#000000" data-fill-palette-color="accent"></path><path d="M215.332 122.015c0-6.704 5.435-12.139 12.139-12.138 6.704 0 12.139 5.435 12.138 12.138 0 6.704-5.435 12.139-12.138 12.139-6.704 0-12.139-5.435-12.139-12.139z" fill="#000000" data-fill-palette-color="accent"></path></g></svg></g></svg></g></svg></g><defs></defs></svg><rect width="395.52" height="137.06841587534822" fill="none" stroke="none" visibility="hidden"></rect></g></svg></g></svg>